<svg xmlns="http://www.w3.org/2000/svg" version="1.1" xmlns:xlink="http://www.w3.org/1999/xlink" xmlns:svgjs="http://svgjs.dev/svgjs" width="1500" height="1500" viewBox="0 0 1500 1500"><rect width="1500" height="1500" fill="#ffffff"></rect><g transform="matrix(0.6666666666666666,0,0,0.6666666666666666,249.78425655976667,249.78425655976673)"><svg viewBox="0 0 343 343" data-background-color="#ffffff" preserveAspectRatio="xMidYMid meet" height="1500" width="1500" xmlns="http://www.w3.org/2000/svg" xmlns:xlink="http://www.w3.org/1999/xlink"><g id="tight-bounds" transform="matrix(1,0,0,1,0.0740000000000407,0.07400000000001228)"><svg viewBox="0 0 342.85155851775386 342.85155851775386" height="342.85155851775386" width="342.85155851775386"><g><svg></svg></g><g><svg viewBox="0 0 342.85155851775386 342.85155851775386" height="342.85155851775386" width="342.85155851775386"><g><path d="M0 171.426c0-94.676 76.75-171.426 171.426-171.426 94.676 0 171.426 76.75 171.426 171.426 0 94.676-76.75 171.426-171.426 171.426-94.676 0-171.426-76.75-171.426-171.426zM171.426 340.572c93.417 0 169.146-75.729 169.146-169.146 0-93.417-75.729-169.146-169.146-169.146-93.417 0-169.146 75.729-169.146 169.146 0 93.417 75.729 169.146 169.146 169.146z" data-fill-palette-color="tertiary" fill="#2e7052" stroke="transparent"></path><ellipse rx="164.56874808852186" ry="164.56874808852186" cx="171.42577925887693" cy="171.42577925887693" fill="#2e7052" stroke="transparent" stroke-width="0" fill-opacity="1" data-fill-palette-color="tertiary"></ellipse></g><g transform="matrix(1,0,0,1,64.84655864529837,138.33229859924307)"><svg viewBox="0 0 213.1584412271571 66.18696131926771" height="66.18696131926771" width="213.1584412271571"><g><svg viewBox="0 0 213.1584412271571 66.18696131926771" height="66.18696131926771" width="213.1584412271571"><g><svg viewBox="0 0 213.1584412271571 66.18696131926771" height="66.18696131926771" width="213.1584412271571"><g transform="matrix(1,0,0,1,0,40.90619738450504)"><svg viewBox="0 0 213.1584412271571 25.280763934762668" height="25.280763934762668" width="213.1584412271571"><g id="textblocktransform"><svg viewBox="0 0 213.1584412271571 25.280763934762668" height="25.280763934762668" width="213.1584412271571" id="textblock"><g><svg viewBox="0 0 213.1584412271571 25.280763934762668" height="25.280763934762668" width="213.1584412271571"><g transform="matrix(1,0,0,1,0,0)"><svg width="213.1584412271571" viewBox="-0.25 -39 333.02 39.5" height="25.280763934762668" data-palette-color="#ffffff"><path d="M36.65-4.7L36.85-4.7 44.6-32.85 40.65-33.85 40.65-36 52.1-36 52.1-33.85 47.95-32.8 38.45 0 33.25 0 25.9-24.05 19.25 0 14.05 0 3.65-32.8-0.25-33.85-0.25-36 13.95-36 13.95-33.85 9.15-32.8 17.4-4.7 17.6-4.7 24.4-29.8 23.75-32.8 19.85-33.85 19.85-36 33.05-36 33.05-33.85 28.45-32.8 36.65-4.7ZM74.45-13.2L74.45-13.2 57-13.2Q57-9.55 58-7.15L58-7.15Q59-4.85 60.85-3.85 62.7-2.85 64.85-2.85L64.85-2.85Q67.2-2.85 69.15-3.83 71.1-4.8 72.65-6.5L72.65-6.5 74.25-5.3Q72.5-2.9 70-1.2 67.5 0.5 63.55 0.5L63.55 0.5Q60.1 0.5 57.45-0.98 54.8-2.45 53.4-5.3L53.4-5.3Q52.65-6.85 52.3-8.75 51.95-10.65 51.95-12.8L51.95-12.8Q51.95-19.8 55.17-23.65 58.4-27.5 63.95-27.5L63.95-27.5Q69.05-27.5 71.82-24.33 74.6-21.15 74.6-15.55L74.6-15.55Q74.6-15.05 74.57-14.63 74.55-14.2 74.45-13.2ZM63.65-24.8L63.65-24.8Q57.65-24.8 57.05-15.65L57.05-15.65 69.55-15.65 69.55-17.3Q69.55-20.9 68.02-22.85 66.5-24.8 63.65-24.8ZM78.2-2.05L82.05-3 82.05-36 78.2-36.95 78.2-39 86.9-39 86.9-3 90.75-2.05 90.75 0 78.2 0 78.2-2.05ZM93.59-2.05L97.44-3 97.44-36 93.59-36.95 93.59-39 102.29-39 102.29-3 106.14-2.05 106.14 0 93.59 0 93.59-2.05ZM109.39-2.05L113.24-3 113.24-24 109.39-24.95 109.39-27 116.59-27 117.69-22 117.89-22Q119.39-24.55 121.94-26.03 124.49-27.5 127.39-27.5L127.39-27.5Q131.54-27.5 133.54-24.8L133.54-24.8Q134.54-23.4 134.97-20.88 135.39-18.35 135.39-14.05L135.39-14.05 135.39-3 139.24-2.05 139.24 0 127.19 0 127.19-2.05 130.54-3 130.54-14.15Q130.54-17.4 130.37-19 130.19-20.6 129.74-21.5L129.74-21.5Q129.14-22.7 128.02-23.33 126.89-23.95 125.34-23.95L125.34-23.95Q122.44-23.95 120.34-22.1L120.34-22.1Q118.29-20.25 118.09-16.35L118.09-16.35 118.09-3 121.44-2.05 121.44 0 109.39 0 109.39-2.05ZM165.19-13.2L165.19-13.2 147.74-13.2Q147.74-9.55 148.74-7.15L148.74-7.15Q149.74-4.85 151.59-3.85 153.44-2.85 155.59-2.85L155.59-2.85Q157.94-2.85 159.89-3.83 161.84-4.8 163.39-6.5L163.39-6.5 164.99-5.3Q163.24-2.9 160.74-1.2 158.24 0.5 154.29 0.5L154.29 0.5Q150.84 0.5 148.19-0.98 145.54-2.45 144.14-5.3L144.14-5.3Q143.39-6.85 143.04-8.75 142.69-10.65 142.69-12.8L142.69-12.8Q142.69-19.8 145.91-23.65 149.14-27.5 154.69-27.5L154.69-27.5Q159.79-27.5 162.56-24.33 165.34-21.15 165.34-15.55L165.34-15.55Q165.34-15.05 165.31-14.63 165.29-14.2 165.19-13.2ZM154.39-24.8L154.39-24.8Q148.39-24.8 147.79-15.65L147.79-15.65 160.29-15.65 160.29-17.3Q160.29-20.9 158.76-22.85 157.24-24.8 154.39-24.8ZM179.74-1.8L179.74-1.8Q182.54-1.8 184.31-2.95 186.09-4.1 186.09-6.15L186.09-6.15Q186.09-7.8 184.99-8.8 183.89-9.8 182.26-10.43 180.64-11.05 178.99-11.5L178.99-11.5Q176.94-12.15 175.04-13.03 173.14-13.9 171.94-15.45 170.74-17 170.74-19.55L170.74-19.55Q170.74-23.15 173.36-25.33 175.99-27.5 180.69-27.5L180.69-27.5Q184.69-27.5 187.01-25.83 189.34-24.15 189.34-21.25L189.34-21.25Q189.34-19.7 188.64-18.78 187.94-17.85 186.64-17.85L186.64-17.85Q185.49-17.85 184.74-18.55 183.99-19.25 183.99-20.35L183.99-20.35Q183.99-21.3 184.49-22.08 184.99-22.85 185.79-23.2L185.79-23.2Q185.04-24.25 183.86-24.73 182.69-25.2 180.84-25.2L180.84-25.2Q177.84-25.2 176.34-24.13 174.84-23.05 174.84-20.95L174.84-20.95Q174.84-19.45 175.56-18.57 176.29-17.7 177.69-17.1 179.09-16.5 181.14-15.85L181.14-15.85Q182.84-15.35 184.49-14.73 186.14-14.1 187.49-13.2 188.84-12.3 189.64-10.95 190.44-9.6 190.44-7.6L190.44-7.6Q190.44-5.05 189.04-3.23 187.64-1.4 185.19-0.45 182.74 0.5 179.54 0.5L179.54 0.5Q175.14 0.5 172.44-1.3 169.74-3.1 169.74-6.15L169.74-6.15Q169.74-7.75 170.46-8.68 171.19-9.6 172.54-9.6L172.54-9.6Q173.74-9.6 174.56-8.9 175.39-8.2 175.39-7.05L175.39-7.05Q175.39-6.1 174.86-5.25 174.34-4.4 173.59-4L173.59-4Q174.24-3.05 175.91-2.43 177.59-1.8 179.74-1.8ZM204.88-1.8L204.88-1.8Q207.68-1.8 209.46-2.95 211.23-4.1 211.23-6.15L211.23-6.15Q211.23-7.8 210.13-8.8 209.03-9.8 207.41-10.43 205.78-11.05 204.13-11.5L204.13-11.5Q202.08-12.15 200.18-13.03 198.28-13.9 197.08-15.45 195.88-17 195.88-19.55L195.88-19.55Q195.88-23.15 198.51-25.33 201.13-27.5 205.83-27.5L205.83-27.5Q209.83-27.5 212.16-25.83 214.48-24.15 214.48-21.25L214.48-21.25Q214.48-19.7 213.78-18.78 213.08-17.85 211.78-17.85L211.78-17.85Q210.63-17.85 209.88-18.55 209.13-19.25 209.13-20.35L209.13-20.35Q209.13-21.3 209.63-22.08 210.13-22.85 210.93-23.2L210.93-23.2Q210.18-24.25 209.01-24.73 207.83-25.2 205.98-25.2L205.98-25.2Q202.98-25.2 201.48-24.13 199.98-23.05 199.98-20.95L199.98-20.95Q199.98-19.45 200.71-18.57 201.43-17.7 202.83-17.1 204.23-16.5 206.28-15.85L206.28-15.85Q207.98-15.35 209.63-14.73 211.28-14.1 212.63-13.2 213.98-12.3 214.78-10.95 215.58-9.6 215.58-7.6L215.58-7.6Q215.58-5.05 214.18-3.23 212.78-1.4 210.33-0.45 207.88 0.5 204.68 0.5L204.68 0.5Q200.28 0.5 197.58-1.3 194.88-3.1 194.88-6.15L194.88-6.15Q194.88-7.75 195.61-8.68 196.33-9.6 197.68-9.6L197.68-9.6Q198.88-9.6 199.71-8.9 200.53-8.2 200.53-7.05L200.53-7.05Q200.53-6.1 200.01-5.25 199.48-4.4 198.73-4L198.73-4Q199.38-3.05 201.06-2.43 202.73-1.8 204.88-1.8ZM251.63-4.7L251.83-4.7 259.58-32.85 255.63-33.85 255.63-36 267.08-36 267.08-33.85 262.93-32.8 253.43 0 248.23 0 240.88-24.05 234.23 0 229.03 0 218.63-32.8 214.73-33.85 214.73-36 228.93-36 228.93-33.85 224.13-32.8 232.38-4.7 232.58-4.7 239.38-29.8 238.73-32.8 234.83-33.85 234.83-36 248.03-36 248.03-33.85 243.43-32.8 251.63-4.7ZM272.68-3L272.68-24 268.83-24.95 268.83-27 277.53-27 277.53-3 281.38-2.05 281.38 0 268.83 0 268.83-2.05 272.68-3ZM271.98-35.05L271.98-35.05Q271.98-36.5 272.83-37.35 273.68-38.2 275.08-38.2L275.08-38.2Q276.53-38.2 277.38-37.35 278.23-36.5 278.23-35.05L278.23-35.05Q278.23-33.65 277.38-32.8 276.53-31.95 275.08-31.95L275.08-31.95Q273.63-31.95 272.8-32.77 271.98-33.6 271.98-35.05ZM294.83-1.8L294.83-1.8Q297.63-1.8 299.4-2.95 301.18-4.1 301.18-6.15L301.18-6.15Q301.18-7.8 300.08-8.8 298.98-9.8 297.35-10.43 295.73-11.05 294.08-11.5L294.08-11.5Q292.03-12.15 290.13-13.03 288.23-13.9 287.03-15.45 285.83-17 285.83-19.55L285.83-19.55Q285.83-23.15 288.45-25.33 291.08-27.5 295.78-27.5L295.78-27.5Q299.78-27.5 302.1-25.83 304.43-24.15 304.43-21.25L304.43-21.25Q304.43-19.7 303.73-18.78 303.03-17.85 301.73-17.85L301.73-17.85Q300.58-17.85 299.83-18.55 299.08-19.25 299.08-20.35L299.08-20.35Q299.08-21.3 299.58-22.08 300.08-22.85 300.88-23.2L300.88-23.2Q300.13-24.25 298.95-24.73 297.78-25.2 295.93-25.2L295.93-25.2Q292.93-25.2 291.43-24.13 289.93-23.05 289.93-20.95L289.93-20.95Q289.93-19.45 290.65-18.57 291.38-17.7 292.78-17.1 294.18-16.5 296.23-15.85L296.23-15.85Q297.93-15.35 299.58-14.73 301.23-14.1 302.58-13.2 303.93-12.3 304.73-10.95 305.53-9.6 305.53-7.6L305.53-7.6Q305.53-5.05 304.13-3.23 302.73-1.4 300.28-0.45 297.83 0.5 294.63 0.5L294.63 0.5Q290.23 0.5 287.53-1.3 284.83-3.1 284.83-6.15L284.83-6.15Q284.83-7.75 285.55-8.68 286.28-9.6 287.63-9.6L287.63-9.6Q288.83-9.6 289.65-8.9 290.48-8.2 290.48-7.05L290.48-7.05Q290.48-6.1 289.95-5.25 289.43-4.4 288.68-4L288.68-4Q289.33-3.05 291-2.43 292.68-1.8 294.83-1.8ZM332.62-13.2L332.62-13.2 315.17-13.2Q315.17-9.55 316.17-7.15L316.17-7.15Q317.17-4.85 319.02-3.85 320.87-2.85 323.02-2.85L323.02-2.85Q325.37-2.85 327.32-3.83 329.27-4.8 330.82-6.5L330.82-6.5 332.42-5.3Q330.67-2.9 328.17-1.2 325.67 0.5 321.72 0.5L321.72 0.5Q318.27 0.5 315.62-0.98 312.97-2.45 311.57-5.3L311.57-5.3Q310.82-6.85 310.47-8.75 310.12-10.65 310.12-12.8L310.12-12.8Q310.12-19.8 313.35-23.65 316.57-27.5 322.12-27.5L322.12-27.5Q327.22-27.5 330-24.33 332.77-21.15 332.77-15.55L332.77-15.55Q332.77-15.05 332.75-14.63 332.72-14.2 332.62-13.2ZM321.82-24.8L321.82-24.8Q315.82-24.8 315.22-15.65L315.22-15.65 327.72-15.65 327.72-17.3Q327.72-20.9 326.2-22.85 324.67-24.8 321.82-24.8Z" opacity="1" transform="matrix(1,0,0,1,0,0)" fill="#ffffff" class="wordmark-text-0" data-fill-palette-color="quaternary" id="text-0"></path></svg></g></svg></g></svg></g></svg></g><g transform="matrix(1,0,0,1,89.00314462185126,0)"><svg viewBox="0 0 35.15215198345459 34.93801575784201" height="34.93801575784201" width="35.15215198345459"><g><svg xmlns="http://www.w3.org/2000/svg" data-name="Layer 1" viewBox="18.81 19 62.379999999999995 62" x="0" y="0" height="34.93801575784201" width="35.15215198345459" class="icon-icon-0" data-fill-palette-color="quaternary" id="icon-0"><g fill="#ffffff" data-fill-palette-color="quaternary"><g fill="#ffffff" data-fill-palette-color="quaternary"><path d="M50 67c-13.42 0-27-4.47-27-13V51h6v3c0 2.38 7.41 7 21 7s21-4.62 21-7V51h6v3C77 62.53 63.42 67 50 67Z" fill="#ffffff" data-fill-palette-color="quaternary"></path><path d="M50 26.76c3.73 3.42 8 8.4 8 12.24a8 8 0 0 1-16 0c0-3.84 4.27-8.83 8-12.24M50 19S36 29 36 39a14 14 0 0 0 28 0c0-10-14-20-14-20Z" fill="#ffffff" data-fill-palette-color="quaternary"></path></g><path d="M50 81c11.81 0 23-2.83 31.19-7.81L76.8 68.8C69.65 72.77 60.13 75 50 75s-19.65-2.23-26.8-6.2l-4.39 4.39C27 78.17 38.19 81 50 81Z" fill="#ffffff" data-fill-palette-color="quaternary"></path></g></svg></g></svg></g><g></g></svg></g></svg></g></svg></g></svg></g><defs></defs></svg><rect width="342.85155851775386" height="342.85155851775386" fill="none" stroke="none" visibility="hidden"></rect></g></svg></g></svg>